<?xml version="1.0" standalone="no"?>
<!DOCTYPE svg PUBLIC "-//W3C//DTD SVG 20010904//EN"
 "http://www.w3.org/TR/2001/REC-SVG-20010904/DTD/svg10.dtd">
<svg version="1.0" xmlns="http://www.w3.org/2000/svg"
 width="1141.000000pt" height="1141.000000pt" viewBox="0 0 1141.000000 1141.000000"
 preserveAspectRatio="xMidYMid meet">

<g transform="translate(0.000000,1141.000000) scale(0.100000,-0.100000)"
fill="#000000" stroke="none">
<path d="M0 5705 l0 -5705 5705 0 5705 0 0 5705 0 5705 -5705 0 -5705 0 0
-5705z m5801 4199 c90 -52 67 23 179 -584 44 -239 91 -493 105 -565 14 -71 61
-326 105 -565 44 -239 92 -496 106 -570 14 -74 166 -892 338 -1817 172 -926
315 -1685 318 -1688 3 -3 49 16 102 42 65 32 98 55 102 68 5 23 247 1233 446
2235 73 366 133 667 134 668 4 6 338 -60 347 -68 7 -6 -83 -465 -529 -2695
-40 -203 -76 -379 -79 -391 -3 -15 -39 -37 -127 -79 -68 -32 -245 -118 -395
-191 l-272 -132 -10 51 c-15 75 -51 264 -61 322 -14 76 -33 179 -105 560 -69
368 -90 478 -105 560 -5 28 -39 208 -75 400 -37 193 -73 384 -80 425 -8 41
-51 269 -95 505 -45 237 -85 453 -90 480 -5 28 -34 183 -65 345 -31 162 -62
329 -70 370 -7 41 -48 257 -90 480 -42 223 -82 437 -89 475 -127 683 -172 915
-177 915 -6 0 -122 -66 -394 -224 -49 -29 -153 -89 -230 -133 -242 -140 -1094
-632 -1230 -711 -71 -41 -213 -123 -315 -182 -102 -59 -275 -159 -385 -222
-110 -64 -297 -171 -415 -239 l-215 -124 0 -1923 0 -1924 230 -132 c324 -187
618 -356 770 -444 72 -41 202 -117 290 -167 267 -154 531 -306 710 -410 94
-54 199 -115 235 -136 l65 -37 3 -211 2 -212 -22 12 c-21 11 -311 178 -553
319 -244 142 -1941 1121 -2035 1175 l-55 31 -2 2134 -3 2135 183 104 c229 132
904 521 1267 731 69 40 226 131 350 203 124 71 315 181 425 245 110 63 283
163 385 222 102 59 273 158 380 220 107 62 283 164 390 225 107 62 218 126
245 143 28 17 57 28 65 26 8 -3 49 -25 91 -50z m874 -504 c231 -134 479 -277
550 -318 228 -132 835 -482 970 -560 224 -129 353 -204 565 -327 113 -65 264
-152 335 -193 72 -41 166 -96 210 -121 l80 -46 0 -2133 0 -2133 -535 -309
c-294 -170 -573 -332 -620 -359 -47 -27 -186 -107 -310 -179 -124 -71 -367
-212 -540 -312 -466 -269 -548 -317 -970 -560 -212 -122 -455 -263 -540 -313
-85 -49 -159 -90 -165 -90 -5 0 -164 89 -352 198 l-343 198 0 562 c0 438 -3
565 -12 573 -7 5 -69 40 -138 77 -140 76 -224 121 -290 157 -25 14 -162 88
-305 166 -143 77 -359 194 -480 260 l-220 119 -3 442 -2 441 180 0 180 0 2
-333 3 -332 530 -287 c292 -158 536 -288 543 -288 9 0 12 478 12 2355 l0 2355
180 0 180 0 0 -3028 0 -3028 68 -39 c37 -21 112 -65 167 -97 l100 -57 35 21
c46 27 356 206 395 228 17 9 129 74 250 144 121 71 265 154 320 186 55 32 154
89 220 127 66 38 228 132 360 208 132 76 308 178 392 227 83 48 167 96 185
106 18 10 105 61 193 111 88 51 343 199 568 329 l407 235 -2 1921 -3 1920 -55
31 c-60 34 -399 229 -550 317 -52 30 -171 99 -265 153 -93 54 -237 138 -320
185 -82 48 -208 121 -280 162 -71 41 -220 127 -330 190 -373 215 -949 548
-951 551 -5 4 -84 431 -84 451 0 17 2 17 33 -2 17 -11 221 -129 452 -262z"/>
</g>
</svg>
